<svg id="Capa_1" data-name="Capa 1" xmlns="http://www.w3.org/2000/svg" viewBox="0 0 789.5 719.23"><defs><style>.cls-1,.cls-2{fill:none;stroke:#000;stroke-miterlimit:10;}.cls-1{stroke-width:13px;}.cls-2{stroke-width:10px;}</style></defs><path class="cls-1" d="M281.91,841s-5.71-2.38-7.26-13.09,1-323.57,1-323.57,6.75-10.11,15.58-10.11h54.51s30.12-.6,39.46,0,27,7.13,56.59-6,54.52-54.73,54.52-54.73H387.83s-10.9-1.19-9.35-16.06-1-68.4-1-68.4,2.07-8.92,13.49-11.89,24.92,4.16,27,10.11,1,23.79,0,26.76,5.71,15.47,30.11,11.9,138.11-.6,138.11-.6,14.54,4.76,14.54,7.74S482.06,519.8,469.86,531.7s-1.56,16.1-89.3,8.92c-7.27-.59-56.59.6-56.59.6s-8.83,2.37-8.31,22.6.52,174.87.52,174.87l54-57.1s12.46-16.65,9.34-43.42c0,0-8.31-38.17,6.23-49.42,0,0,25.44-6.49,31.67,8.38,0,0,5.71,84.46-5.71,97.55,0,0-13,26.17-44.65,55.91Z" transform="translate(-267.5 -129.5)"/><path class="cls-1" d="M315.66,328.87c.52-10.34-5.51-37.55,18.69-38.67,25.44,0,244.54,2.38,244.54,2.38s15.84-6.91,26.48-20.81S729,139.35,729,139.35s-14.8-2.23-14.8-2.53-303.76-.31-319.45-.52-17.43-3.57-20.16,18.73c0,0-1.95,29,12.85,27.66S602.38,184,602.38,184s14-1.34,19.47,5.8c0,0-16.35,15.17-22.19,21.86s-10.91,22.75-43.23,32.12l-266.73.89s-17.48-.44-15.55,30.78V413.33s1.53,19,15.94,20.08,26.48,8.47,26.09-22.31S315.14,339.2,315.66,328.87Z" transform="translate(-267.5 -129.5)"/><path class="cls-2" d="M907.13,488v42.9s.83,8.3,18.78,7.68,98.91,0,98.91,0,9.52.89,11.18-10.87V398.35A16.14,16.14,0,0,0,1025,385s-26.22-15.53-39.48-21.68c0,0-55.49-21.52-73.71-22.75,0,0-5.8-4.3-4.7,11.07Z" transform="translate(-267.5 -129.5)"/><path class="cls-2" d="M882.6,454.61V340s3.11-5.06-46-5.75c0,0-83.87-6.92-185.12,50.5,0,0-82,56.73-107.47,141.82,0,0-26.72,106.54,29.81,175.73,0,0,72.69,110,190.72,123.83,0,0,174.15,29.06,264.43-54.65,0,0,39.34-13.84,15.12-31.83l-73.93-67.1s-3.73-4.15-24.23,10.37c0,0-56.53,47.05-124.24,29.06,0,0-116.17-6.92-134.18-118.3C687.54,593.67,681.32,433.86,882.6,454.61Z" transform="translate(-267.5 -129.5)"/></svg>